<svg xmlns="http://www.w3.org/2000/svg" height="48" width="48" viewBox="0 0 496 512" fill="#000000">
  <path d="M248 8C111 8 0 119 0 256c0 137 111 248 248 248s248-111 248-248C496 119 385 8 248 8zm120 168c13.3 0 24 14.3 24 32s-10.7 32-24 32-24-14.3-24-32 10.7-32 24-32zm-94.1 208.4c-50.3 0-94.2-29.3-114.5-72.2-5.1-10.7 2.7-22.2 14.5-22.2h199c11.8 0 19.6 11.5 14.5 22.2-20.3 42.9-64.2 72.2-114.5 72.2zM168 216c0 13.3-10.7 24-24 24s-24-10.7-24-24 10.7-24 24-24 24 10.7 24 24zm28.8-27.5c-3.5 3.1-8.2 4.5-12.8 3.5-4.5-1-8.2-4.1-10.1-8.2-9.2-20-26.5-32.8-45.9-32.8-10.7 0-21.1 3.8-30.1 11.1-6.9 5.5-17 4.5-22.5-2.4s-4.5-17 2.4-22.5c18.3-14.6 40-22.2 63-22.2 38.2 0 71.7 23.4 88.6 60.4 3.6 7.8 .5 17.1-7.2 21.1z"></path>
</svg>
